<svg xmlns="http://www.w3.org/2000/svg" width="1395" height="1794.12" viewBox="0 0 1395 1794.12">
  <defs>
    <style>
      .cls-1 {
        fill: #fff;
        fill-rule: evenodd;
      }
    </style>
  </defs>
  <path class="cls-1" d="M2002.25,2431.66l190.58,272.83h0L1999,2897.07h0l-192.59-193.83h0l195.84-271.58h0Zm-4.63-710.42,190.59-272.84h0l-193.84-192.58h0l-192.58,193.83h0l195.83,271.59h0Zm148.88,371.7,301-355,6,163,244-282-1-515-696,808-1,352,324,376,373-442-1-337-371,434Zm-293-1-301-355-6,163-244-282,1-515,697,809-1,352-323,375-373-442,1-337,371,434Z" transform="translate(-1302.5 -1102.94)"/>
</svg>
